<svg width="73.204224" height="105.000000" viewBox="0 0 73.2042 105" fill="none" xmlns="http://www.w3.org/2000/svg" xmlns:xlink="http://www.w3.org/1999/xlink">
	<desc>
			Created with Pixso.
	</desc>
	<defs/>
	<path d="M46.0792 1.28979C45.389 2.02051 43.7538 3.56799 42.4485 4.7572C38.0975 8.68323 37.2124 10.0874 37.0924 13.2969C37.0023 15.9047 37.6324 17.882 39.2678 20.1316C39.7029 20.7333 40.063 21.1918 40.063 21.1345C40.063 21.0916 39.793 20.5327 39.4629 19.9022C38.2026 17.4951 37.8275 14.5721 38.5177 12.4945C39.1628 10.5459 40.108 9.37097 43.3037 6.54822C43.9788 5.96082 44.804 5.14404 45.149 4.7572L45.7942 4.04077L45.7041 7.0498C45.6592 9.04138 45.5541 10.4169 45.389 11.1333C44.834 13.5548 43.7538 15.4749 41.7883 17.5811C40.363 19.1143 39.958 19.9883 40.348 20.7047C40.4081 20.8336 40.5131 21.3781 40.5731 21.8939L40.6631 22.8396L39.8079 23.384C36.9124 25.2181 34.8718 27.8688 34.0468 30.8778C33.8217 31.6802 33.7317 32.4539 33.7317 33.7004C33.7167 36.3512 34.2268 38.5577 35.517 41.3375L36.1921 42.799L35.9521 43.9452C35.712 45.1058 35.6371 48.559 35.847 49.4617C35.9221 49.8198 36.0121 49.8915 36.3872 49.8915L36.8373 49.8915L36.9423 48.0431C37.3324 41.4521 39.6129 37.6265 44.969 34.5745C49.0948 32.2246 50.3102 30.9065 53.0557 25.8055C55.2162 21.7506 55.9062 20.676 57.5717 18.6271L58.5168 17.4664L57.1815 18.011C55.0211 18.8993 51.9154 19.7876 48.1647 20.5901C44.564 21.3495 42.9286 21.7936 41.6833 22.3954C41.2932 22.5817 40.9331 22.7393 40.8882 22.7393C40.8431 22.7393 40.8281 22.1661 40.8732 21.4497C40.9481 19.9166 40.9631 19.8879 43.2887 17.5668C44.549 16.3202 45.074 15.6611 45.5092 14.8444C46.4694 13.0247 46.5443 12.4945 46.4393 8.98413C46.3344 5.6886 46.5143 3.53931 47.1145 1.14648C47.2645 0.530396 47.3845 0.0145264 47.3695 0.000244141C47.3545 -0.0141602 46.7694 0.573364 46.0792 1.28979ZM52.9957 23.7566C49.9801 29.0581 47.8796 31.3076 43.0636 34.4169C42.1184 35.033 41.0082 35.8068 40.603 36.1219C39.1178 37.2969 37.4224 39.618 36.7773 41.3518C36.6272 41.7673 36.4622 42.0538 36.4172 41.9823C36.1771 41.624 35.532 38.701 35.382 37.3398C34.8868 32.8264 36.6422 28.8718 40.333 26.2211C42.4485 24.688 44.3689 23.9858 48.2397 23.3124C49.89 23.0259 52.5156 22.2952 53.6409 21.8223C53.8959 21.7219 54.106 21.6504 54.136 21.6647C54.1509 21.679 53.6409 22.6246 52.9957 23.7566Z" fill="#151618" fill-opacity="1.000000" fill-rule="nonzero"/>
	<path d="M19.681 4.86841C20.5758 8.09668 20.8442 12.3293 20.4117 16.2894C19.8749 21.2252 20.3223 22.7174 23.5137 26.778C24.3785 27.8684 25.3479 29.2889 25.6909 29.9202C26.6603 31.7998 27.1821 34.4686 27.1971 37.6826L27.1971 39.017L26.8392 38.8734C26.004 38.5721 24.4978 38.443 20.71 38.3712C18.5029 38.3282 16.2212 38.2278 15.6396 38.1704C15.0729 38.0986 14.5808 38.0699 14.5659 38.0844C14.5361 38.0986 14.8344 38.3282 15.2369 38.6008C16.9221 39.7631 18.6222 41.2697 20.5907 43.3501C21.7539 44.5697 23.1407 45.9183 23.6926 46.3345C26.0488 48.1281 28.748 49.1754 32.0139 49.5485C33.3561 49.7063 32.8192 49.2185 30.5525 48.2715C26.9436 46.7506 25.1392 45.5166 22.3654 42.6901C21.3214 41.6283 20.0538 40.4948 19.5616 40.1648L18.667 39.5908L20.4266 39.5908C25.0497 39.5908 27.6594 40.4518 29.8813 42.7045C30.985 43.8092 31.7754 45.1866 32.178 46.6646C32.2972 47.1379 32.4315 47.5541 32.4762 47.5972C32.6254 47.7263 32.5807 45.9041 32.4166 44.8997C32.0736 42.8192 30.3438 40.5234 28.3602 39.5192L27.4954 39.0886L27.4954 36.7212C27.4954 32.015 27.0629 30.3937 24.7961 26.7206C21.7986 21.8422 21.3065 19.9196 21.396 13.1616C21.4258 11.0668 21.4706 9.34497 21.4855 9.35938C21.4855 9.37366 21.7986 9.77539 22.1565 10.2489C22.5294 10.7224 23.8566 12.1428 25.1241 13.4055C28.1963 16.4617 29.3744 18.2264 30.1051 20.8809C30.9253 23.7936 30.2543 27.8684 28.3156 31.7998C27.9576 32.5316 27.6892 33.1342 27.7041 33.1342C27.734 33.1342 27.9874 32.7898 28.2858 32.3594C30.6271 28.9733 31.8052 25.1566 31.6262 21.584C31.5219 19.6326 31.1191 18.1117 30.2692 16.4186C29.4042 14.6681 28.405 13.4342 25.512 10.5502C23.2601 8.29761 21.7091 6.63318 20.0836 4.79663L19.4573 4.07922L19.681 4.86841Z" fill="#151618" fill-opacity="1.000000" fill-rule="nonzero"/>
	<path d="M46.5726 40.0358C43.1472 40.7347 40.8185 43.6444 40.8035 47.2102C40.8035 47.9233 40.7734 47.9805 40.3376 48.123C39.5564 48.3799 40.1273 48.5082 42.5463 48.608C46.0017 48.7506 48.1201 48.3656 49.923 47.2531C50.4188 46.9535 51.6658 45.9978 52.7024 45.1278C54.8058 43.3877 55.8876 42.646 57.6604 41.7474L58.8473 41.1483L57.4049 41.0485C56.6237 41.0057 55.2264 40.8203 54.295 40.6633C53.3635 40.5065 51.8911 40.2498 51.0198 40.1071C49.1869 39.7933 47.8647 39.7648 46.5726 40.0358ZM51.5305 41.8187C52.2667 41.9899 53.4086 42.1753 54.0396 42.218L55.2114 42.3179L53.5739 43.5731C51.0798 45.4844 49.4272 46.3545 47.3088 46.8679C46.2271 47.1389 41.3894 47.8378 41.2842 47.7379C41.149 47.6096 41.5847 46.2831 42.1105 45.2419C43.027 43.4304 44.7548 42.1324 46.9332 41.6047C48.045 41.3337 49.7878 41.4193 51.5305 41.8187Z" fill="#151618" fill-opacity="1.000000" fill-rule="nonzero"/>
	<path d="M13.0565 55.6404C12.876 63.3893 13.2971 66.0106 15.3276 69.9139C16.3955 71.9592 18.1251 74.3501 19.3584 75.4735C19.6593 75.7472 19.8999 76.0065 19.8999 76.0497C19.8999 76.1073 16.1548 76.1217 11.5975 76.0929C7.02527 76.0641 3.12976 76.0929 2.9342 76.1361C2.75366 76.1793 2.51306 76.381 2.42285 76.5682C2.28748 76.8706 2.30249 76.9714 2.52808 77.2163C2.79883 77.5044 2.96423 77.5044 36.4745 77.5044C59.4114 77.5044 70.2405 77.4612 70.451 77.3604C70.8422 77.1587 70.8422 76.4098 70.451 76.2081C70.2555 76.1217 67.1572 76.0641 61.4117 76.0641L52.6732 76.0641L53.5907 75.0127C56.2076 72.0601 57.9072 68.8193 59.0203 64.6855C59.3361 63.5477 59.3662 63.058 59.4114 57.2968L59.4866 51.1466L36.3241 51.1466L13.1617 51.1466L13.0565 55.6404Z" fill="#151618" fill-opacity="1.000000" fill-rule="nonzero"/>
	<path d="M6.81421 79.4547C11.8964 81.7458 19.7301 83.6127 27.0376 84.2775C28.3308 84.4047 28.9171 84.5037 28.6917 84.5603C28.3759 84.6451 28.3608 84.6593 28.6165 84.6735C28.7819 84.6876 29.8043 84.7583 30.8718 84.8431C36.375 85.225 48.1633 84.9987 47.8325 84.5037C47.7875 84.433 47.8025 84.4047 47.8927 84.4471C47.9679 84.4896 48.2385 84.4755 48.4791 84.4047C48.9001 84.2915 48.9001 84.2915 48.3137 84.2633C47.9528 84.2491 48.7196 84.0795 50.1932 83.839C54.7792 83.1035 58.5532 82.2125 61.6506 81.1377C63.4249 80.5154 66.8682 79.1011 67.1088 78.8748C67.184 78.8041 55.4408 78.7476 36.2848 78.7617L5.31055 78.7758L6.81421 79.4547Z" fill="#151618" fill-opacity="1.000000" fill-rule="nonzero"/>
	<path d="M65.1709 100.612Q65.2412 100.603 65.2764 100.603Q65.3379 100.603 65.4258 100.612L65.6104 100.612Q65.707 100.612 65.7773 100.621L65.874 100.621Q66.0498 100.621 66.1816 100.665Q66.3223 100.709 66.4805 100.709L66.5244 100.709Q66.542 100.7 66.6123 100.682Q66.6826 100.665 66.7617 100.647Q66.8496 100.638 66.9199 100.63Q66.9902 100.621 67.0166 100.621Q67.3154 100.586 67.5879 100.586Q67.8604 100.586 68.168 100.48L68.2646 100.48Q68.2646 100.489 68.3174 100.524L68.3701 100.559Q68.3789 100.559 68.4229 100.568Q68.4756 100.577 68.5371 100.586L68.6602 100.603Q68.7217 100.612 68.748 100.621L68.792 100.621Q68.8953 100.621 68.9723 100.576Q69.0133 100.552 69.0469 100.515Q69.0634 100.497 69.0786 100.478Q69.1526 100.386 69.1963 100.269Q69.218 100.208 69.2338 100.145Q69.2563 100.055 69.2666 99.9617Q69.2842 99.7947 69.293 99.6892L69.293 98.6609Q69.293 98.6257 69.3193 98.5554Q69.3545 98.4851 69.3545 98.4587L69.3545 98.3884Q69.3545 98.2654 69.3193 98.1775Q69.293 98.0808 69.293 97.9578Q69.293 97.8611 69.3193 97.7644Q69.3297 97.736 69.337 97.7068Q69.3545 97.6367 69.3545 97.5623L69.3545 97.5183L69.249 97.4128Q69.1787 97.3425 69.1436 97.325Q69.1172 97.3337 69.0908 97.3513Q69.0732 97.3689 69.0469 97.3865Q69.0205 97.3953 69.0029 97.4128Q68.9941 97.4304 68.9062 97.5007Q68.8271 97.571 68.8096 97.6062Q68.8008 97.6238 68.7744 97.6853Q68.7568 97.738 68.7217 97.8083Q68.6953 97.8699 68.6602 97.9226Q68.6338 97.9666 68.625 97.9753Q68.6162 97.9929 68.5811 98.0369Q68.5459 98.0808 68.502 98.1248L68.4141 98.2126Q68.3789 98.2566 68.3701 98.2654Q68.3701 98.283 68.3438 98.3621Q68.3174 98.4412 68.3086 98.4587Q68.3086 98.4763 68.2471 98.5554Q68.1855 98.6345 68.168 98.6609Q68.1592 98.6785 68.1152 98.7751Q68.0713 98.8718 68.0186 98.9861Q67.9746 99.0916 67.9219 99.1882Q67.8779 99.2849 67.8516 99.3113Q67.8076 99.3904 67.7461 99.4958Q67.6846 99.5925 67.6055 99.6892Q67.5659 99.7332 67.5242 99.7749Q67.4824 99.8167 67.4385 99.8562Q67.3506 99.9265 67.2539 99.9529L65.584 99.9529Q65.5752 99.9529 65.5225 99.9705Q65.4697 99.9792 65.3994 99.9968Q65.3379 100.006 65.2852 100.023Q65.2324 100.032 65.2236 100.032L64.582 100.032Q64.4766 100.032 64.3623 100.014Q64.2568 99.9968 64.1514 99.9529L63.7822 99.9529Q63.5273 99.9441 63.2285 99.9353Q62.9385 99.9265 62.6748 99.9177Q62.4199 99.9089 62.3145 99.9089Q62.2617 99.9001 62.165 99.8914Q62.0771 99.8738 61.9805 99.8738Q61.8838 99.865 61.8047 99.8562Q61.7344 99.8474 61.7256 99.8298Q61.708 99.821 61.6641 99.7859L61.5762 99.7156Q61.541 99.6716 61.5059 99.6365Q61.4707 99.5925 61.4619 99.575Q61.4619 99.531 61.4531 99.4167L61.4531 99.2673Q61.4531 98.907 61.4883 98.5818Q61.5234 98.2566 61.5234 97.9138Q61.5234 97.8699 61.5146 97.8347Q61.5059 97.7996 61.4619 97.7292Q61.4619 97.6677 61.4443 97.5095Q61.4355 97.3425 61.4268 97.1667Q61.418 96.9822 61.4092 96.824Q61.4004 96.6658 61.4004 96.5955L61.4004 96.4812Q61.4092 96.3845 61.4355 96.1912Q61.4707 95.989 61.4971 95.7781Q61.5322 95.5671 61.5586 95.3914Q61.5938 95.2068 61.6025 95.1453Q61.6278 95.0091 61.7051 94.9164Q61.7625 94.8474 61.8486 94.8025Q61.9962 94.7226 62.1523 94.6986Q62.2194 94.6882 62.2881 94.6882L62.376 94.6882Q62.3936 94.6882 62.4551 94.7234Q62.5166 94.7585 62.5254 94.7849Q62.5605 94.7849 62.6484 94.7937L62.8418 94.8113Q62.9473 94.8113 63.0439 94.8201Q63.1406 94.8289 63.1846 94.8289Q63.2373 94.8464 63.3955 94.8464L64.0723 94.8464Q64.2217 94.8464 64.292 94.8289Q64.4103 94.8504 64.4891 94.9179Q64.5391 94.9608 64.5732 95.0222Q64.6611 95.1804 64.6875 95.4177Q64.7227 95.6462 64.7227 95.9187Q64.7227 96.1912 64.7402 96.4548Q64.7578 96.7097 64.8105 96.9294Q64.8676 97.1333 65.0003 97.2539Q65.0107 97.2633 65.0215 97.2722Q65.0479 97.3162 65.127 97.3689Q65.2061 97.4128 65.2236 97.4128Q65.2412 97.4128 65.3115 97.3689Q65.3906 97.3162 65.3994 97.2722Q65.4961 97.1228 65.5225 96.9998Q65.5576 96.8767 65.5576 96.7273Q65.5576 96.6921 65.5488 96.6306L65.5488 96.5076Q65.5488 96.4373 65.54 96.3757L65.54 96.2703Q65.54 96.2439 65.5312 96.156Q65.5225 96.0593 65.5049 95.9539Q65.4961 95.8396 65.4873 95.7429Q65.4785 95.6462 65.4785 95.6199Q65.4785 95.6023 65.4873 95.5583Q65.5049 95.5056 65.5137 95.4529Q65.5312 95.3914 65.54 95.3474L65.5576 95.3035Q65.5664 95.2771 65.584 95.198Q65.6016 95.1101 65.6016 95.0398Q65.6016 94.8904 65.5928 94.7498Q65.584 94.6003 65.584 94.5828Q65.5928 94.5212 65.6016 94.3542Q65.6191 94.1873 65.6367 93.9675Q65.6543 93.739 65.6719 93.4929Q65.6895 93.238 65.707 93.0183Q65.7246 92.7986 65.7334 92.6316Q65.7422 92.4646 65.751 92.4119Q65.751 92.3855 65.7422 92.3328Q65.7334 92.2712 65.7334 92.2009Q65.7334 92.157 65.7422 92.1218Q65.751 92.0867 65.751 92.0779Q65.7773 91.9812 65.7861 91.9548Q65.7949 91.9197 65.7949 91.8494Q65.7949 91.6472 65.7334 91.5593Q65.6719 91.4714 65.4785 91.4714Q65.3027 91.4714 65.2236 91.5417Q65.2157 91.5488 65.2083 91.5563Q65.141 91.6235 65.1094 91.7263Q65.0742 91.8318 65.0654 91.9636Q65.0566 92.0955 65.0215 92.2097Q65.0127 92.2185 64.9863 92.2537Q64.9688 92.2888 64.9424 92.3328Q64.916 92.3679 64.8896 92.4119Q64.8721 92.447 64.8721 92.4558Q64.8545 92.4822 64.8369 92.5876Q64.8193 92.6843 64.8018 92.7986Q64.7842 92.9128 64.7666 93.0183Q64.7578 93.115 64.749 93.1414Q64.6875 93.2908 64.626 93.5193Q64.5645 93.739 64.4326 93.8533Q64.3711 93.8533 64.2129 93.8621Q64.0547 93.8708 63.8701 93.8796Q63.6943 93.8796 63.5273 93.8884Q63.3691 93.8972 63.3076 93.8972L62.5254 93.8972Q62.5166 93.8972 62.4551 93.9148Q62.4023 93.9236 62.332 93.9412Q62.2617 93.95 62.2002 93.9675Q62.1387 93.9763 62.1211 93.9763L61.6729 93.9763Q61.6377 93.9763 61.5938 93.9324Q61.5498 93.8796 61.5234 93.8533L61.5234 93.7917Q61.5234 93.4841 61.5586 93.1941Q61.6025 92.9041 61.6025 92.6228Q61.6025 92.2097 61.5586 91.8142Q61.5234 91.4099 61.5234 91.0144Q61.5234 90.8927 61.5384 90.7729Q61.5559 90.6331 61.5938 90.4958Q61.6641 90.241 61.6729 89.9597L61.6729 88.8699Q61.6729 88.8523 61.7168 88.8347Q61.7607 88.8083 61.7959 88.8083L62.3145 88.8083Q62.3408 88.8083 62.4551 88.7996Q62.5781 88.782 62.71 88.7732Q62.8506 88.7556 62.9648 88.7468Q63.0879 88.7292 63.123 88.7292L63.3779 88.7292Q63.3955 88.7292 63.4658 88.7468Q63.5361 88.7556 63.6152 88.7732Q63.6943 88.782 63.7559 88.7996Q63.8262 88.8083 63.835 88.8083L64.292 88.8083Q64.3711 88.8171 64.5645 88.8347Q64.7666 88.8435 64.9863 88.8611Q65.2061 88.8699 65.3994 88.8875Q65.6016 88.8962 65.6719 88.8962Q65.8125 88.949 65.8916 89.0281Q65.9707 89.1072 66.0322 89.1951Q66.1025 89.2742 66.1641 89.3621Q66.2256 89.45 66.3311 89.5203Q66.3486 89.5378 66.4014 89.5554Q66.4541 89.5642 66.4629 89.5818Q66.4805 89.6169 66.5244 89.6609Q66.5771 89.7048 66.5859 89.7224Q66.5937 89.7318 66.6013 89.7414Q66.7497 89.9269 66.8584 90.1443Q66.9814 90.364 67.1045 90.5398L67.1484 90.5837Q67.1836 90.6101 67.2188 90.6453Q67.2539 90.6804 67.2803 90.7156Q67.3154 90.7419 67.3154 90.7507Q67.3682 90.8298 67.3857 90.9001L67.4385 91.0408Q67.4648 91.1023 67.5088 91.1638Q67.5527 91.2253 67.6494 91.2869L67.7109 91.2869Q67.79 91.2869 67.8604 91.2693Q67.8697 91.2658 67.8786 91.2613Q67.9365 91.2324 67.9746 91.1638L67.9746 90.6804Q67.9746 90.6365 67.9658 90.5222Q67.957 90.408 67.9482 90.2849Q67.9395 90.1619 67.9219 90.0564Q67.9131 89.9421 67.9131 89.8982Q67.8955 89.7751 67.8691 89.5466Q67.8516 89.3181 67.8164 89.0808Q67.7812 88.8435 67.7197 88.6501Q67.667 88.448 67.5791 88.3953Q67.5352 88.3601 67.4561 88.3162Q67.3857 88.2722 67.3066 88.2371Q67.2363 88.1931 67.1748 88.1667Q67.1133 88.1404 67.1045 88.1404Q67.0957 88.1316 66.9902 88.1228Q66.8848 88.1052 66.7441 88.0964Q66.6123 88.0876 66.4717 88.0789Q66.3398 88.0701 66.2695 88.0613L65.2236 88.0613Q65.1973 88.0613 65.0918 88.0525Q64.9951 88.0437 64.8809 88.0437Q64.7666 88.0349 64.6699 88.0261Q64.5732 88.0173 64.5469 88.0173L64.4326 88.0173Q64.3887 88.0173 64.3008 88.0261Q64.2129 88.0349 64.1162 88.0437Q64.0283 88.0437 63.9492 88.0525Q63.8701 88.0613 63.835 88.0613L61.8926 88.0613Q61.5498 88.0613 61.1982 88.0701Q60.8467 88.0789 60.4775 88.0789Q60.0293 88.0789 59.5898 88.0701Q59.1504 88.0525 58.7109 88.0173Q58.6934 88.0173 58.6406 87.9822Q58.6143 87.9646 58.5879 87.9382L58.5439 87.9382Q58.2803 87.9382 58.1133 87.9822Q57.9463 88.0173 57.7354 88.1404Q57.7178 88.1404 57.709 88.1492Q57.7002 88.158 57.6826 88.1667L57.6475 88.1843Q57.6475 88.3689 57.7354 88.4832Q57.7547 88.506 57.7758 88.5271Q57.8602 88.6115 57.9727 88.6677Q58.1133 88.7292 58.2803 88.7644Q58.4473 88.7908 58.5879 88.8083Q58.6318 88.8171 58.7637 88.8259Q58.8955 88.8347 59.0361 88.8435Q59.1855 88.8435 59.3174 88.8523Q59.4492 88.8611 59.502 88.8699Q59.5916 88.9388 59.6434 89.0294Q59.6576 89.0543 59.6689 89.0808Q59.7217 89.2039 59.7393 89.3445Q59.7568 89.4763 59.7656 89.6257Q59.7718 89.725 59.7956 89.8199Q59.8054 89.8594 59.8184 89.8982Q59.8184 89.9773 59.8096 90.1707Q59.8008 90.364 59.792 90.5925Q59.7832 90.8123 59.7744 91.0144Q59.7656 91.2078 59.7568 91.2869Q59.7568 91.3132 59.748 91.4187Q59.7393 91.5242 59.7305 91.6472Q59.7217 91.7703 59.7129 91.8845Q59.7041 91.99 59.7041 92.0164L59.7041 92.0779Q59.7041 92.7546 59.7305 93.4402Q59.7568 94.1257 59.7568 94.8289L59.7568 95.3035Q59.7568 95.3562 59.748 95.5144Q59.748 95.6638 59.7393 95.8748Q59.7393 96.0857 59.7305 96.323Q59.7217 96.5515 59.7129 96.7625Q59.7129 96.9734 59.7041 97.1316L59.7041 97.325Q59.7041 97.8787 59.6865 98.3884Q59.6689 98.8982 59.5635 99.4167Q59.5635 99.4431 59.5371 99.5046Q59.5195 99.5574 59.502 99.575Q59.4404 99.6277 59.3438 99.7332Q59.2471 99.8298 59.2295 99.8298L58.3945 99.8298Q58.3154 99.8298 58.2275 99.8826Q58.1484 99.9265 58.0693 99.9968Q57.999 100.067 57.9463 100.155Q57.9023 100.234 57.9023 100.304Q57.8953 100.319 57.8995 100.327Q57.9006 100.329 57.9023 100.331Q57.9023 100.334 57.9038 100.337Q57.9094 100.348 57.9375 100.348Q58.0254 100.586 58.1396 100.63Q58.2627 100.682 58.5 100.682L58.5352 100.682Q58.5615 100.682 58.5879 100.674Q58.623 100.674 58.6494 100.665Q58.667 100.665 58.7285 100.656L58.8691 100.638Q58.9482 100.638 59.0098 100.63Q59.0801 100.621 59.1064 100.621Q59.1768 100.621 59.3789 100.612Q59.5898 100.603 59.8184 100.603Q60.0469 100.603 60.249 100.612Q60.46 100.621 60.5479 100.621Q60.6357 100.577 60.6885 100.568Q60.7412 100.559 60.8379 100.559Q60.9609 100.559 61.0488 100.577Q61.1455 100.594 61.2773 100.638L63.5801 100.638L64.6611 100.7L64.8721 100.621L64.9248 100.621Q64.9775 100.612 65.0391 100.612L65.1709 100.612ZM5.625 100.515L5.82715 100.515Q6.73914 100.515 7.6352 100.635Q7.68041 100.641 7.72559 100.647Q8.0332 100.691 8.30566 100.735Q8.58691 100.788 8.91211 100.788L8.92969 100.788Q9.10547 100.674 9.21973 100.568Q9.23629 100.552 9.25046 100.533Q9.33398 100.425 9.33398 100.252Q9.33398 100.173 9.31241 100.101Q9.29044 100.028 9.24609 99.9617Q9.23162 99.9376 9.21421 99.9158Q9.13645 99.8186 9 99.7683Q8.93848 99.7683 8.78906 99.7595Q8.63965 99.7507 8.46387 99.7419Q8.29688 99.7332 8.13867 99.7244Q7.98926 99.7156 7.91895 99.7068Q7.76953 99.698 7.60254 99.6804Q7.44434 99.6628 7.3125 99.6101Q7.22821 99.5764 7.16189 99.5211Q7.12447 99.4899 7.09277 99.4519Q7.01367 99.3464 7.01367 99.1619Q7.01367 98.5466 7.04004 97.9314Q7.0752 97.3162 7.0752 96.7097Q7.0752 96.2087 7.04004 95.7341Q7.01367 95.2507 7.01367 94.7673Q7.01367 94.3191 7.0752 93.8972Q7.14551 93.4666 7.14551 93.0183Q7.14551 92.8953 7.1543 92.5525Q7.16309 92.2009 7.16309 91.8054Q7.16309 91.4099 7.1543 91.0671Q7.14551 90.7244 7.14551 90.5837Q7.1543 90.5574 7.16309 90.4958Q7.17188 90.4255 7.17188 90.3552Q7.18066 90.2849 7.18945 90.2234Q7.19824 90.1531 7.20703 90.1267Q7.20703 90.1179 7.25098 90.0212Q7.29492 89.9158 7.33008 89.8542Q7.34766 89.8103 7.40918 89.7312Q7.44434 89.696 7.4707 89.6609Q7.47949 89.6433 7.61133 89.6169Q7.74316 89.5818 7.81348 89.5818L8.65723 89.5818Q8.69238 89.5818 8.79785 89.6257Q8.91211 89.6609 8.92969 89.6609Q9.18457 89.696 9.4043 89.696Q9.62402 89.696 9.85254 89.7927Q10.2129 89.9509 10.5469 90.1794Q10.7313 90.3024 10.8598 90.4687Q10.9701 90.6113 11.0391 90.7859Q11.0918 90.9089 11.1445 91.0583Q11.1973 91.199 11.2588 91.3308Q11.3291 91.4626 11.417 91.5769Q11.4802 91.6516 11.5584 91.7038Q11.5999 91.7314 11.6455 91.7527Q11.6631 91.7703 11.6895 91.7791Q11.7158 91.8054 11.7422 91.8054Q11.7861 91.8054 11.8301 91.7878Q11.8828 91.7615 11.918 91.6912Q11.9443 91.4539 11.9619 91.2693Q11.9795 91.0847 11.9795 90.8562L11.9795 90.7244Q11.9795 90.7156 11.9707 90.6716Q11.9619 90.6189 11.9443 90.5662Q11.9355 90.5046 11.9268 90.4607Q11.918 90.4167 11.918 90.3992Q11.9004 90.2849 11.8652 90.0037Q11.8301 89.7224 11.7949 89.406Q11.7686 89.0896 11.7422 88.8083Q11.7158 88.5183 11.707 88.4128Q11.6432 88.2478 11.5245 88.1828Q11.4472 88.1404 11.3467 88.1404L11.2412 88.1404Q11.0918 88.1931 10.9336 88.325Q10.7842 88.4568 10.626 88.5974Q10.4678 88.7292 10.3096 88.8347Q10.1514 88.9314 10.002 88.9314L8.41113 88.9138Q8.01562 88.9138 7.75195 88.9226Q7.48828 88.9226 7.3125 88.9314Q7.14551 88.9402 7.04004 88.9578Q6.94336 88.9753 6.87305 89.0017Q6.83789 89.0017 6.72363 88.9929Q6.61816 88.9841 6.48633 88.9753Q6.35449 88.9578 6.24023 88.949Q6.13477 88.9314 6.09961 88.9314Q6.08203 88.9226 6.0293 88.9226Q5.97656 88.9138 5.90625 88.9138L5.66895 88.9138Q5.43164 88.9138 5.23828 88.9578Q5.05371 89.0017 4.8252 89.0017L4.54395 89.0017Q4.53516 89.0017 4.49121 88.9929Q4.45605 88.9841 4.41211 88.9753Q4.37695 88.9578 4.3418 88.949L4.30664 88.9314Q3.94629 88.8699 3.57715 88.8523Q3.20801 88.8347 2.83008 88.8347Q2.62793 88.8347 2.42578 88.8435Q2.22363 88.8523 2.03906 88.8523Q1.99688 88.8393 1.95948 88.8179Q1.8956 88.7814 1.8457 88.7205Q1.7666 88.615 1.6875 88.5183Q1.64795 88.47 1.604 88.426Q1.56006 88.3821 1.51172 88.3425Q1.50428 88.3358 1.4964 88.3297Q1.41119 88.2634 1.27441 88.2634Q1.21941 88.2634 1.17293 88.2833Q1.13773 88.2984 1.10742 88.325Q1.03711 88.3777 0.984375 88.4568Q0.94043 88.5359 0.905273 88.6326Q0.878906 88.7205 0.852539 88.7908Q0.852539 88.8083 0.817383 88.8875Q0.791016 88.9666 0.755859 89.0632Q0.720703 89.1599 0.685547 89.239Q0.65918 89.3181 0.65918 89.3357Q0.650391 89.3621 0.632812 89.45Q0.615234 89.5291 0.588867 89.6345Q0.571289 89.7312 0.553711 89.8191Q0.536133 89.907 0.536133 89.9333Q0.518555 89.9597 0.483398 90.0652Q0.457031 90.1707 0.421875 90.2937Q0.386719 90.4167 0.351562 90.531Q0.325195 90.6365 0.316406 90.6628L0.316406 90.7244Q0.316406 90.7683 0.307617 90.8298L0.307617 91.2517Q0.316406 91.3132 0.316406 91.3748L0.316406 91.4539Q0.342773 91.533 0.386719 91.5945L0.387761 91.5957Q0.431905 91.6472 0.536133 91.6472Q0.613188 91.6472 0.677048 91.6182Q0.729733 91.5942 0.773438 91.5505Q0.870117 91.4539 0.94043 91.3308Q1.01074 91.199 1.06348 91.0671Q1.125 90.9265 1.18652 90.8474Q1.19531 90.8386 1.2832 90.7332Q1.37988 90.6277 1.49414 90.4871Q1.6084 90.3464 1.72266 90.2146Q1.8457 90.074 1.91602 89.9949L1.98633 89.9246Q2.03906 89.8718 2.03906 89.8542Q2.14991 89.778 2.27168 89.751Q2.30439 89.7437 2.33789 89.74Q2.49609 89.7136 2.62793 89.6609Q2.69824 89.6697 2.85645 89.6697L3.5332 89.6697Q3.7002 89.6697 3.75293 89.6609Q3.77051 89.6609 3.84082 89.6521Q3.91113 89.6345 3.98145 89.6257Q4.06055 89.6082 4.12207 89.5994Q4.19238 89.5818 4.20996 89.5818Q4.25391 89.5818 4.35938 89.5906Q4.47363 89.5994 4.58789 89.6169Q4.71094 89.6257 4.81641 89.6433Q4.93066 89.6521 4.97461 89.6609Q5.09766 89.7751 5.16797 89.8982Q5.24707 90.0125 5.29102 90.1882Q5.29102 90.3025 5.28223 90.6013L5.28223 91.2253Q5.28223 91.5505 5.27344 91.8582L5.27344 92.2888Q5.27344 92.658 5.28223 93.0271Q5.29102 93.3962 5.29102 93.783Q5.29102 94.697 5.28223 95.6199Q5.27344 96.5427 5.22949 97.4568Q5.22949 97.4832 5.21191 97.5886Q5.19434 97.6941 5.17676 97.8083Q5.16797 97.9226 5.15039 98.0193Q5.1416 98.116 5.1416 98.1423L5.1416 99.1179Q5.1416 99.253 5.10981 99.3802Q5.0837 99.4846 5.03613 99.5837Q5.03438 99.5862 5.03256 99.5886Q4.98902 99.6467 4.91309 99.6804Q4.84277 99.7156 4.74609 99.7419Q4.6582 99.7595 4.57031 99.7683L4.42969 99.7683Q4.3418 99.7859 4.12207 99.8035Q3.90234 99.8123 3.65625 99.8298Q3.41895 99.8386 3.19922 99.8474Q2.97949 99.8562 2.8916 99.865Q2.87531 99.8724 2.86026 99.8818Q2.78603 99.9282 2.74219 100.023Q2.68945 100.137 2.68945 100.252Q2.68945 100.362 2.7417 100.433Q2.76053 100.459 2.78613 100.48Q2.88281 100.559 3.01465 100.603Q3.0224 100.605 3.03019 100.607Q3.15476 100.638 3.28711 100.638Q3.43652 100.647 3.5332 100.647Q3.99023 100.647 4.44727 100.63Q4.9043 100.621 5.35254 100.577Q5.36133 100.577 5.40527 100.568L5.49316 100.551Q5.53711 100.533 5.57227 100.524Q5.61621 100.515 5.625 100.515ZM40.4209 93.3962Q40.4648 93.4929 40.4912 93.6599Q40.4824 93.7654 40.4736 93.9675L40.4736 97.1228Q40.4824 97.3074 40.4912 97.4128Q40.4912 97.8875 40.5615 98.3796Q40.6406 98.863 40.8252 99.2849Q40.8779 99.408 40.9482 99.5046Q41.0273 99.5925 41.1064 99.6716Q41.1855 99.7507 41.2646 99.8386Q41.3438 99.9177 41.4141 100.032L41.4756 100.076Q41.5283 100.129 41.6338 100.208Q41.7393 100.278 41.8447 100.357Q41.959 100.436 42.0469 100.498Q42.1348 100.551 42.1611 100.559Q42.2335 100.603 42.3119 100.622Q42.3286 100.627 42.3457 100.63Q42.4424 100.656 42.5391 100.665L42.75 100.7Q42.8133 100.71 42.8734 100.731Q42.9135 100.744 42.9521 100.761L43.4795 100.761Q43.6465 100.761 43.7783 100.744Q43.9102 100.726 44.0332 100.7Q44.1562 100.682 44.2793 100.656Q44.4111 100.638 44.5781 100.621L44.833 100.621Q44.8418 100.612 44.9033 100.577Q44.9648 100.533 45.0352 100.48Q45.1143 100.427 45.1846 100.384L45.29 100.304Q45.5713 100.058 45.8174 99.821Q46.0123 99.6396 46.1507 99.4221Q46.1932 99.3552 46.2305 99.2849Q46.248 99.2585 46.3008 99.1619Q46.3535 99.0652 46.4062 98.9509Q46.4678 98.8367 46.5117 98.74Q46.5557 98.6433 46.5732 98.6257Q46.582 98.6082 46.6436 98.5203Q46.7051 98.4236 46.7051 98.3972Q46.7139 98.3972 46.7227 98.3445Q46.7402 98.283 46.7402 98.2214Q46.749 98.1511 46.7578 98.0896Q46.7666 98.0193 46.7842 98.0017Q46.7842 97.9841 46.8018 97.9226Q46.8193 97.8523 46.8369 97.7732Q46.8633 97.6941 46.8809 97.6326Q46.8984 97.5623 46.9072 97.5359Q46.9336 97.448 46.9336 97.3689L46.9512 97.2107Q46.96 97.1228 46.9775 97.0437Q46.9951 96.9558 47.0391 96.8679Q47.0479 96.7712 47.0566 96.5339Q47.0654 96.2966 47.0742 96.033Q47.0918 95.7605 47.1006 95.5232Q47.1094 95.2859 47.1182 95.1892L47.1182 94.4597Q47.1182 94.4509 47.1445 94.363Q47.1797 94.2751 47.1797 94.2488L47.1797 94.0994Q47.1797 93.9587 47.1445 93.8533Q47.1182 93.7478 47.1182 93.6072Q47.1182 93.5288 47.1397 93.4569Q47.1617 93.3837 47.2061 93.3171Q47.2588 93.238 47.3305 93.1842Q47.3783 93.1484 47.4346 93.1238Q47.5576 93.071 47.6982 93.0447Q47.8477 93.0183 47.9707 92.9744Q48.1025 92.9216 48.1816 92.8337L48.1826 92.8327Q48.2695 92.7361 48.2695 92.5613Q48.2695 92.5437 48.2607 92.4734Q48.2607 92.4031 48.2432 92.3767Q48.1289 92.2976 47.9619 92.2712Q47.7949 92.2449 47.6191 92.2449Q47.5049 92.2449 47.3906 92.2537Q47.2852 92.2625 47.2061 92.2625L46.6611 92.2625Q46.5645 92.2625 46.4238 92.2888Q46.292 92.3152 46.2217 92.3152Q46.0723 92.3152 45.9141 92.3064Q45.7559 92.2888 45.5977 92.2888Q45.3779 92.2888 45.1758 92.3328Q45.1115 92.3439 45.0534 92.3693Q44.9289 92.4238 44.833 92.5437Q44.8242 92.5613 44.8154 92.5876Q44.8066 92.6052 44.8066 92.6228L44.8066 92.7019Q44.8154 92.7195 44.833 92.7634Q44.9824 92.9568 45.1582 93.0183Q45.3428 93.0798 45.5625 93.1238Q45.5977 93.1414 45.6416 93.1414Q45.6768 93.1414 45.7031 93.1326Q45.7383 93.1238 45.7822 93.1238Q45.835 93.1238 45.8965 93.1853Q45.9141 93.1853 45.9316 93.238Q45.9492 93.282 45.958 93.3259Q45.9932 93.3611 46.0459 93.4929Q46.0986 93.616 46.1162 93.6599Q46.1162 93.739 46.125 93.9324Q46.1426 94.1169 46.1602 94.3279Q46.1865 94.5388 46.2041 94.7234Q46.2217 94.908 46.2305 94.9783L46.2305 95.7429Q46.2305 95.7605 46.2217 95.8132Q46.2129 95.8572 46.2041 95.9187Q46.2041 95.9714 46.1953 96.0242Q46.1865 96.0681 46.1865 96.0769Q46.1602 96.3669 46.1514 96.6746Q46.1426 96.9822 46.125 97.2986Q46.1074 97.6062 46.0547 97.905Q46.002 98.2039 45.8965 98.4763Q45.8965 98.4939 45.8789 98.5554Q45.8613 98.6169 45.835 98.6873Q45.8174 98.7488 45.791 98.8103Q45.7734 98.8718 45.7646 98.8894Q45.6504 99.0652 45.457 99.2849Q45.2916 99.474 45.0837 99.5572Q45.0597 99.5668 45.0352 99.575Q44.9912 99.5837 44.9121 99.6013Q44.833 99.6101 44.7627 99.6277Q44.666 99.6541 44.5781 99.6804L44.4375 99.6804Q44.4287 99.6804 44.376 99.698Q44.332 99.7156 44.2705 99.7419L44.165 99.7947Q44.1123 99.821 44.1035 99.8298L43.9805 99.8298Q43.8838 99.8298 43.8047 99.8035Q43.7256 99.7771 43.6553 99.7507Q43.585 99.7156 43.5059 99.6892Q43.4268 99.6541 43.3301 99.6453L43.3301 99.6449Q43.3288 99.6365 43.2686 99.6365Q43.2246 99.6365 43.1631 99.6101Q43.1016 99.575 43.084 99.575Q42.9785 99.5486 42.8555 99.4519Q42.7412 99.3552 42.627 99.2322Q42.5127 99.1003 42.416 98.9685Q42.3281 98.8367 42.293 98.7488Q42.2578 98.6873 42.2227 98.5818Q42.1875 98.4763 42.1523 98.3621Q42.126 98.2478 42.0996 98.1423Q42.0732 98.0281 42.0645 97.9578Q42.0645 97.9138 42.0557 97.8083Q42.0557 97.7029 42.0469 97.5886Q42.0381 97.4656 42.0293 97.3601Q42.0293 97.2458 42.0205 97.2019Q42.0205 97.1843 42.0117 97.114Q42.0029 97.0437 41.9854 96.9646Q41.9766 96.8855 41.959 96.8152Q41.9502 96.7449 41.9502 96.7273L41.9502 96.5427L41.9854 96.4021Q42.0205 96.2966 42.0205 96.2527L42.0205 95.4792Q42.0205 95.4529 42.0293 95.3738Q42.0381 95.2947 42.0381 95.2068Q42.0469 95.1101 42.0557 95.031Q42.0645 94.9519 42.0645 94.9343Q42.0688 94.9314 42.0725 94.9277Q42.0908 94.9094 42.0908 94.8728Q42.0996 94.8201 42.0996 94.7937Q42.0996 94.6707 42.0557 94.5828Q42.0205 94.4949 42.0205 94.3542Q42.0205 94.24 42.0293 94.0906Q42.0381 93.9412 42.0645 93.7917Q42.0996 93.6335 42.1523 93.5017Q42.2051 93.3611 42.293 93.2644Q42.3721 93.1677 42.5127 93.115Q42.6621 93.0535 42.8027 92.9919Q42.9521 92.9304 43.0576 92.8513Q43.0941 92.8239 43.118 92.7881Q43.1631 92.7205 43.1631 92.6228Q43.1631 92.4873 43.0962 92.4086Q43.0547 92.3597 42.9873 92.3328Q42.8203 92.2625 42.6182 92.2625L42.5566 92.2625Q42.5391 92.2625 42.46 92.2888Q42.3809 92.3152 42.3545 92.3152Q42.1875 92.3416 42.0469 92.3503L41.7656 92.3679Q41.625 92.3767 41.4756 92.3767L40.8252 92.3767Q40.5703 92.3328 40.4121 92.3152Q40.2539 92.2888 40.1045 92.2888Q40.0078 92.2888 39.8936 92.2976Q39.7881 92.3064 39.7002 92.3152Q39.6562 92.3328 39.5771 92.3503Q39.498 92.3679 39.4805 92.3767Q39.4453 92.4031 39.4365 92.4646L39.4365 92.5349Q39.4365 92.5876 39.4629 92.7019Q39.4893 92.8074 39.542 92.8689Q39.5684 92.8865 39.665 92.9128Q39.7283 92.9234 39.7884 92.9434Q39.8285 92.9568 39.8672 92.9744L40.1309 93.1062Q40.2363 93.1589 40.3066 93.2292Q40.377 93.2908 40.4209 93.3962ZM12.6211 100.524Q12.6738 100.586 12.6738 100.621Q12.7266 100.638 12.832 100.656Q12.9375 100.682 13.0518 100.7Q13.166 100.726 13.2627 100.744Q13.3682 100.761 13.4121 100.761Q13.4561 100.761 13.5615 100.726Q13.667 100.691 13.7021 100.665Q13.7197 100.665 13.7725 100.674Q13.8252 100.682 13.8867 100.682Q13.9436 100.682 13.9479 100.667L13.9482 100.665Q13.9746 100.665 14.0361 100.656Q14.0977 100.656 14.1592 100.647Q14.2295 100.647 14.2822 100.638Q14.3438 100.63 14.3701 100.621L17.7012 100.621Q17.7363 100.621 17.8945 100.612Q18.0615 100.603 18.2373 100.594Q18.4219 100.586 18.5801 100.577Q18.7383 100.559 18.7822 100.542L19.0986 100.542Q19.1689 100.559 19.3359 100.568Q19.5029 100.577 19.6875 100.586Q19.8721 100.594 20.0303 100.603Q20.1973 100.612 20.2588 100.621Q20.2863 100.619 20.3129 100.613Q20.4054 100.592 20.4873 100.524Q20.4929 100.52 20.4984 100.515Q20.6054 100.43 20.6807 100.304Q20.7598 100.173 20.8037 100.032Q20.8477 99.8826 20.8477 99.7683L20.8477 99.7419Q20.8477 99.7068 20.8389 99.5398Q20.8301 99.3728 20.8213 99.1882Q20.8213 98.9949 20.8125 98.8279Q20.8037 98.6609 20.8037 98.6169L20.8037 98.4324Q20.8037 98.3269 20.7773 98.2302Q20.7675 98.1907 20.7427 98.166Q20.7015 98.1248 20.6191 98.1248L20.6016 98.1248Q20.5998 98.1248 20.5984 98.1255Q20.5928 98.1283 20.5928 98.1423Q20.5752 98.1599 20.5576 98.1687Q20.5312 98.1951 20.5312 98.2039Q20.5225 98.2214 20.4873 98.2742Q20.4609 98.3181 20.4258 98.3796L20.3555 98.4851Q20.3291 98.5291 20.3203 98.5554Q20.3115 98.573 20.2764 98.6169L20.1973 98.696L20.1094 98.7664Q20.0654 98.7927 20.0566 98.7927Q20.0479 98.8191 19.9951 98.907Q19.9424 98.9861 19.9072 99.0125Q19.8369 99.1619 19.793 99.3113Q19.749 99.4607 19.6523 99.6013Q19.626 99.6541 19.5996 99.6804Q19.5732 99.698 19.5469 99.7068Q19.5205 99.7068 19.4766 99.7156Q19.4414 99.7156 19.3799 99.7419Q19.3711 99.7419 19.3359 99.7771Q19.3008 99.8123 19.248 99.8562L19.1602 99.9265Q19.1162 99.9529 19.0986 99.9529L18.5098 99.9529Q18.4922 99.9529 18.4307 99.9705Q18.3779 99.9792 18.3076 99.9968Q18.2373 100.006 18.1758 100.023Q18.1143 100.032 18.0967 100.032L16.7607 100.032Q16.7432 100.006 16.6992 99.9792Q16.6553 99.9529 16.6377 99.9529Q16.418 99.8914 16.2686 99.865Q16.1191 99.8386 16.0225 99.7859Q16.0051 99.7764 15.9894 99.7646Q15.9179 99.711 15.8818 99.6101Q15.8379 99.4871 15.8379 99.2234Q15.8379 98.7048 15.873 98.2302Q15.9082 97.7468 15.9082 97.2283L15.9082 96.9294L16.0312 96.7888L16.084 96.7888Q16.1279 96.78 16.1807 96.78L16.2949 96.78Q16.3564 96.7712 16.3828 96.7712Q16.4268 96.7712 16.5059 96.78L16.6641 96.78Q16.752 96.78 16.8135 96.7888L16.9102 96.7888Q16.9453 96.7888 17.0508 96.8064Q17.165 96.8152 17.2881 96.8416Q17.4199 96.8591 17.5342 96.8855Q17.6484 96.9119 17.7012 96.9294L17.8242 96.9998Q17.8945 97.0261 17.9209 97.0613Q17.9209 97.1052 17.9297 97.2019Q17.9385 97.2986 17.9473 97.4128Q17.9561 97.5183 17.9648 97.615Q17.9824 97.7029 17.9912 97.7292Q18 97.8083 18.0352 97.905Q18.0703 97.9929 18.123 98.0808Q18.1758 98.1687 18.2373 98.2302Q18.2855 98.2716 18.3391 98.2805Q18.3539 98.283 18.3691 98.283Q18.4746 98.283 18.5449 98.2478Q18.624 98.2126 18.7207 98.1423Q18.7295 98.116 18.7383 98.0457Q18.7471 97.9753 18.7471 97.905Q18.7559 97.8259 18.7646 97.7644Q18.7734 97.7029 18.7822 97.6853L18.7822 96.9294Q18.7822 96.8591 18.791 96.6833Q18.7998 96.4988 18.8086 96.2966Q18.8174 96.0945 18.8262 95.9099Q18.835 95.7253 18.8438 95.6462Q18.8877 95.5759 18.9053 95.5056Q18.9229 95.4265 18.9229 95.3474L18.9229 95.0222Q18.9229 94.908 18.8877 94.8201Q18.8781 94.7849 18.8557 94.7625Q18.8166 94.7234 18.7383 94.7234Q18.624 94.7234 18.5098 94.7498Q18.4217 94.7701 18.3598 94.8217Q18.3413 94.8371 18.3252 94.8552Q18.3076 94.8728 18.29 94.9958Q18.2725 95.1101 18.2549 95.1453Q18.2461 95.1541 18.2021 95.2419Q18.167 95.3298 18.1143 95.4529Q18.0615 95.5671 18.0088 95.6902Q17.9561 95.8044 17.9209 95.866Q17.9121 95.8748 17.8945 95.9099Q17.877 95.9451 17.8506 95.989Q17.8242 96.033 17.8066 96.0769Q17.7891 96.1208 17.7803 96.1384Q17.4639 96.1824 17.2354 96.1912Q17.0156 96.2 16.7168 96.2L16.2334 96.2Q16.1367 96.1736 16.0488 96.0945Q15.9697 96.0154 15.9082 95.9363Q15.8994 95.9011 15.8818 95.7957L15.8643 95.5671Q15.8555 95.4441 15.8467 95.3386Q15.8379 95.2332 15.8379 95.1892L15.8379 95.075Q15.8379 94.9871 15.8555 94.7673Q15.873 94.5476 15.8906 94.3015Q15.917 94.0554 15.9346 93.8357Q15.9609 93.616 15.9697 93.5193L16.0576 93.2908Q16.1104 93.1677 16.1719 93.071Q16.1982 93.0348 16.2296 93.0035Q16.2817 92.9513 16.3477 92.9128Q16.4531 92.8513 16.6113 92.8513L16.6377 92.8513Q16.6641 92.8513 16.7783 92.8601Q16.9014 92.8601 17.042 92.8689Q17.1826 92.8689 17.2969 92.8777Q17.4199 92.8865 17.4463 92.8953L17.4727 92.8953Q17.499 92.8953 17.5605 92.8777Q17.6221 92.8513 17.6572 92.8513L17.7012 92.8513Q17.7188 92.8601 17.7891 92.8865Q17.8594 92.9041 17.9385 92.9216Q18.0264 92.9392 18.0967 92.9568Q18.167 92.9744 18.1934 92.9744Q18.1934 92.9832 18.2373 92.9919Q18.29 93.0007 18.3428 93.0183Q18.4043 93.0271 18.4482 93.0359Q18.501 93.0447 18.5098 93.0447L18.5151 93.045Q18.5559 93.0495 18.5889 93.1238Q18.6064 93.1414 18.6592 93.2205Q18.7207 93.2996 18.7822 93.3962Q18.8525 93.4841 18.9053 93.5632Q18.9668 93.6423 18.9844 93.6599L19.0811 93.7566Q19.1777 93.8357 19.1953 93.8708Q19.2559 93.9618 19.2956 94.0611Q19.3135 94.1057 19.3271 94.1521Q19.3711 94.3015 19.4238 94.4509Q19.4766 94.6003 19.5557 94.741Q19.6348 94.8728 19.7842 94.9783Q19.7842 94.9837 19.7867 94.9874Q19.7923 94.9958 19.8105 94.9958L19.8457 94.9958Q19.8545 94.9958 19.8589 94.9915Q19.8633 94.9871 19.8633 94.9783Q19.8809 94.9783 19.9248 94.9343Q19.9688 94.8816 19.9863 94.8552Q19.9951 94.7937 20.0127 94.6531Q20.0391 94.5037 20.0566 94.3542Q20.083 94.196 20.1006 94.0642Q20.1182 93.9236 20.1182 93.8708L20.1182 92.8513Q20.0654 92.6492 19.9512 92.5173Q19.9438 92.5083 19.9359 92.4999Q19.82 92.3767 19.5732 92.3767L15.4424 92.3767Q15.3984 92.3679 15.293 92.3591Q15.1875 92.3503 15.0645 92.3416L14.8359 92.324Q14.7305 92.3152 14.6953 92.3064L14.4668 92.3064Q14.0537 92.3064 13.6494 92.3503Q13.2451 92.3943 12.8232 92.3767Q12.7881 92.4822 12.7793 92.5437L12.7793 92.6843Q12.7793 92.8527 12.8634 92.9326Q12.8978 92.9653 12.9463 92.9832Q13.1133 93.0447 13.3594 93.0447L13.7197 93.0447Q13.8604 93.0447 13.9834 93.0623Q14.1152 93.0798 14.2119 93.1414Q14.2268 93.1495 14.2408 93.1588Q14.3181 93.2103 14.3701 93.2996Q14.4316 93.405 14.4316 93.5808L14.4316 97.4128Q14.4229 97.4392 14.4053 97.5095Q14.3877 97.5798 14.3701 97.6677Q14.3613 97.7468 14.3525 97.8171Q14.3438 97.8875 14.3438 97.9138L14.3438 97.9753Q14.3438 98.283 14.3525 98.5642Q14.3701 98.8367 14.3701 99.1443L14.3701 99.2849Q14.3701 99.408 14.3438 99.5486Q14.3356 99.6094 14.3051 99.6553Q14.2694 99.7088 14.2031 99.7419L14.1592 99.7595Q14.124 99.7771 14.0713 99.7947Q14.0273 99.8035 13.9746 99.821Q13.9307 99.8298 13.9043 99.8298L13.2803 99.8298Q13.2363 99.8298 13.1309 99.8562Q13.0342 99.8738 13.0166 99.8914Q12.9902 99.9177 12.9199 99.9792L12.7793 100.12Q12.709 100.19 12.6475 100.26Q12.5859 100.331 12.5684 100.366L12.5684 100.41Q12.5771 100.454 12.6211 100.524ZM54.1657 93.6027Q54.1503 93.6155 54.1318 93.6248Q54.0879 93.6863 54.0176 93.8357Q53.9561 93.9851 53.877 94.1521Q53.7979 94.3103 53.7012 94.4685Q53.6133 94.6179 53.5254 94.6882Q53.3057 94.8552 53.165 94.9519Q53.0332 95.0398 52.9277 95.0398Q52.8996 95.0398 52.8743 95.0314Q52.8363 95.0187 52.8047 94.9871Q52.7607 94.9343 52.6992 94.8464Q52.6729 94.8025 52.5762 94.6355Q52.4795 94.4685 52.3652 94.2751Q52.2598 94.073 52.1631 93.906Q52.0752 93.7302 52.0488 93.6863Q52.0137 93.6423 51.9609 93.5369Q51.9082 93.4226 51.9082 93.3523Q51.9082 93.1941 51.9785 93.1414Q52.0488 93.0886 52.1367 93.0535Q52.1908 93.0318 52.2382 93.0002Q52.2679 92.9805 52.2949 92.9568Q52.3652 92.8865 52.3652 92.7107Q52.3652 92.5319 52.2827 92.4768Q52.2719 92.4697 52.2598 92.4646Q52.1631 92.4119 51.9521 92.4119Q51.3984 92.4119 50.8447 92.447Q50.2998 92.4822 49.7373 92.4822L49.6934 92.4822Q49.6758 92.4822 49.6318 92.4734Q49.5967 92.4646 49.5439 92.4558L49.4561 92.4382L49.4209 92.4294L49.3857 92.4294Q49.2891 92.4294 49.2451 92.4558L49.2441 92.4564Q49.2012 92.4833 49.2012 92.5789Q49.2012 92.6492 49.21 92.7195Q49.2108 92.7226 49.2118 92.7256Q49.2311 92.7832 49.2979 92.825Q49.4209 92.9392 49.5527 93.0271Q49.6846 93.115 49.8076 93.2029Q49.9395 93.2908 50.0625 93.3962Q50.1855 93.4929 50.2998 93.6248Q50.425 93.7764 50.5107 93.9478Q50.5393 94.0049 50.5635 94.0642Q50.6689 94.3015 50.8447 94.5212Q50.8711 94.5476 50.9062 94.574Q50.915 94.5916 50.9238 94.6003Q50.9414 94.6003 50.9502 94.6091L50.9678 94.6267Q50.9766 94.6443 50.9854 94.697L51.0557 94.908Q51.0732 94.9519 51.0908 94.9607Q51.1348 95.0222 51.1963 95.1716Q51.2666 95.321 51.3018 95.3914Q51.3105 95.4001 51.3457 95.4705Q51.3896 95.532 51.4336 95.6111L51.5215 95.7517Q51.5654 95.822 51.5742 95.8484Q51.6797 96.1033 51.8027 96.3054Q51.9258 96.4988 52.1719 96.6482L52.1719 96.7273Q52.1807 96.78 52.1807 96.8416Q52.1895 96.9031 52.1895 96.9558Q52.1982 97.0085 52.1982 97.0349Q52.1982 97.0613 52.1895 97.1228Q52.1895 97.1755 52.1807 97.2371Q52.1807 97.2986 52.1719 97.3513L52.1719 97.3953Q52.1719 97.4041 52.1367 97.4568Q52.1104 97.5007 52.0664 97.5623Q52.0312 97.6238 51.9785 97.6941Q51.9346 97.7556 51.9082 97.7908Q51.8994 97.8083 51.8379 97.8699Q51.7764 97.9226 51.7588 97.949Q51.6006 98.2478 51.4336 98.5378Q51.2754 98.8191 51.0469 99.0828Q51.0029 99.1267 50.8887 99.2322Q50.7832 99.3376 50.6602 99.4519L50.4404 99.6716Q50.335 99.7683 50.2998 99.8035Q50.168 99.8914 50.0186 99.9529Q49.8691 100.006 49.7197 100.067Q49.5791 100.129 49.4385 100.208Q49.3066 100.287 49.2012 100.41L49.2012 100.48Q49.2012 100.507 49.21 100.568Q49.2158 100.586 49.2275 100.597Q49.251 100.621 49.2979 100.621L51.7588 100.621Q51.8379 100.603 51.8906 100.568Q51.8955 100.565 51.9 100.561Q51.9521 100.515 51.9521 100.41Q51.9274 100.371 51.8958 100.34Q51.8264 100.27 51.7236 100.234Q51.583 100.173 51.4424 100.137Q51.3018 100.094 51.1963 100.041Q51.1476 100.016 51.1214 99.9771Q51.0908 99.9312 51.0908 99.865L51.0908 99.8035Q51.1084 99.7859 51.126 99.7419Q51.1523 99.6892 51.1699 99.6804Q51.1963 99.6453 51.3018 99.4783Q51.416 99.3113 51.5391 99.1179Q51.6709 98.9246 51.7764 98.7664Q51.8818 98.5994 51.9082 98.5554Q51.9609 98.4587 52.0137 98.3269Q52.0664 98.1951 52.1367 98.0808Q52.207 97.9578 52.3037 97.8787Q52.3279 97.8567 52.3553 97.8402Q52.4377 97.7908 52.5498 97.7908Q52.6289 97.7908 52.7344 97.9226Q52.8398 98.0544 52.9541 98.2566Q53.0771 98.4587 53.1826 98.7048Q53.2969 98.9509 53.3848 99.1882Q53.4814 99.4167 53.5342 99.6101Q53.5869 99.8035 53.5869 99.8914Q53.5869 100.05 53.5166 100.111Q53.4551 100.173 53.376 100.217Q53.3057 100.252 53.2354 100.304Q53.1738 100.357 53.1738 100.498L53.1738 100.559Q53.209 100.577 53.3145 100.603Q53.4287 100.621 53.4639 100.621Q53.499 100.621 53.6309 100.63Q53.7627 100.638 53.9121 100.638Q54.0703 100.647 54.2021 100.656Q54.3428 100.665 54.3867 100.665Q54.3955 100.682 54.4482 100.691Q54.5098 100.709 54.5625 100.726Q54.624 100.744 54.6768 100.753Q54.7295 100.761 54.7383 100.761L54.7822 100.761Q54.8174 100.761 54.958 100.753Q55.0986 100.744 55.2568 100.726Q55.4238 100.709 55.5645 100.691Q55.7051 100.682 55.7402 100.665Q55.8018 100.665 55.8809 100.674Q55.9688 100.682 56.0479 100.682Q56.1885 100.682 56.2939 100.63Q56.3212 100.619 56.342 100.601Q56.4082 100.544 56.4082 100.41Q56.4082 100.3 56.3547 100.233Q56.3396 100.214 56.3203 100.199Q56.2412 100.12 56.1182 100.076Q56.0039 100.032 55.8809 99.9968Q55.7578 99.9529 55.6787 99.8914Q55.459 99.7068 55.292 99.5046Q55.125 99.3025 54.9932 99.0828Q54.8877 98.8999 54.7935 98.7115Q54.7699 98.6644 54.7471 98.6169Q54.6328 98.3708 54.5273 98.1248L54.3164 97.7292Q54.2988 97.7029 54.2373 97.615Q54.1846 97.5271 54.1143 97.4304Q54.0439 97.325 53.9824 97.2458Q53.9297 97.158 53.9209 97.1404Q53.9121 97.1228 53.8682 97.0437Q53.833 96.9646 53.7803 96.8679L53.6748 96.6746Q53.6221 96.5691 53.5869 96.5164Q53.499 96.3406 53.4023 96.1384Q53.3057 95.9363 53.3057 95.7517Q53.3057 95.6638 53.3232 95.6111Q53.3496 95.5583 53.3848 95.4968Q53.4551 95.3562 53.5605 95.2068Q53.666 95.0574 53.7803 94.9607Q53.811 94.9387 53.8374 94.9124Q53.8638 94.886 53.8857 94.8552Q53.9297 94.7937 53.9648 94.7498Q53.9912 94.7234 54.0615 94.6443Q54.1318 94.5564 54.2109 94.4597Q54.2988 94.363 54.3691 94.2839Q54.4395 94.196 54.4658 94.1697Q54.7383 93.8357 55.0371 93.6072Q55.3447 93.3699 55.7402 93.2292Q55.8633 93.1941 56.0215 93.1677Q56.1885 93.1414 56.3379 93.0974Q56.4873 93.0447 56.584 92.948Q56.5987 92.9345 56.6113 92.9193Q56.6895 92.8256 56.6895 92.6667Q56.6895 92.5349 56.6455 92.4646Q56.6241 92.4303 56.5943 92.4065Q56.563 92.3814 56.5225 92.3679Q56.4521 92.3416 56.3467 92.3416Q56.25 92.3328 56.1357 92.3328Q55.9863 92.3328 55.8369 92.3503Q55.6875 92.3591 55.5293 92.4294L53.9824 92.4294Q53.9648 92.4294 53.8594 92.447Q53.7627 92.4646 53.7188 92.4822Q53.6748 92.4998 53.6133 92.5173Q53.5605 92.5349 53.5078 92.5613Q53.4551 92.5789 53.4199 92.614Q53.4023 92.6272 53.3936 92.6448Q53.3848 92.6624 53.3848 92.6843Q53.3848 92.7425 53.4104 92.7853Q53.4429 92.8394 53.5166 92.8689Q53.6572 92.9128 53.8154 92.9568Q53.9824 92.9919 54.1143 93.071Q54.1646 93.0962 54.1969 93.136Q54.2549 93.2074 54.2549 93.3259Q54.2549 93.4138 54.2285 93.5017Q54.2091 93.5665 54.1657 93.6027ZM31.0869 100.638Q31.1748 100.621 31.1924 100.621Q31.2012 100.621 31.2803 100.63Q31.3594 100.647 31.4473 100.665Q31.5439 100.682 31.623 100.691Q31.7021 100.709 31.7285 100.709Q31.7725 100.709 31.8516 100.7Q31.9395 100.7 32.001 100.665Q32.0098 100.665 32.1064 100.638Q32.2119 100.621 32.2295 100.621L32.8184 100.621Q32.8535 100.621 32.9854 100.612Q33.126 100.603 33.2754 100.594Q33.4248 100.586 33.5566 100.577Q33.6885 100.568 33.7324 100.559L33.873 100.559Q33.8818 100.568 33.9258 100.577Q33.9697 100.586 34.0225 100.594Q34.0752 100.603 34.1191 100.612Q34.1631 100.621 34.1719 100.621Q34.251 100.63 34.3916 100.638Q34.541 100.647 34.6904 100.647Q34.8486 100.656 34.9717 100.656Q35.1035 100.665 35.1475 100.665Q35.1562 100.674 35.332 100.674Q35.5078 100.682 35.7363 100.682L37.3799 100.682Q37.626 100.682 37.8369 100.674Q38.0479 100.674 38.127 100.665Q38.3555 100.612 38.4521 100.542Q38.5365 100.485 38.5759 100.407Q38.5857 100.387 38.5928 100.366Q38.6367 100.26 38.6367 100.12Q38.6367 99.9705 38.6543 99.7683Q38.6543 99.7507 38.6807 99.6804Q38.707 99.6013 38.707 99.5837L38.707 99.5398Q38.7158 99.4958 38.7158 99.4343L38.7158 99.2058Q38.7158 99.1091 38.707 98.9597Q38.707 98.8015 38.6719 98.6521Q38.6367 98.5027 38.5576 98.3972Q38.5192 98.3417 38.4661 98.3131Q38.4101 98.283 38.3379 98.283Q38.2676 98.283 38.25 98.2917Q38.2412 98.3005 38.2061 98.3445Q38.1797 98.3708 38.127 98.45Q38.0742 98.5203 38.0039 98.6082L37.8809 98.7664Q37.8281 98.8367 37.793 98.8718Q37.793 98.8894 37.7402 98.9861Q37.6875 99.074 37.6699 99.0828L37.626 99.1267Q37.6172 99.1267 37.582 99.1443Q37.5557 99.1619 37.5205 99.1882L37.4502 99.241Q37.4238 99.2585 37.4238 99.2673Q37.415 99.2761 37.3975 99.3113Q37.3799 99.3464 37.3623 99.3904Q37.3447 99.4255 37.3271 99.4695Q37.3096 99.5046 37.3096 99.5134Q37.2832 99.5486 37.2217 99.6101Q37.1689 99.6716 37.0986 99.7419L36.9844 99.8562Q36.9316 99.9001 36.9141 99.9089Q36.9053 99.9177 36.8438 99.9353Q36.7822 99.9441 36.7031 99.9529Q36.624 99.9617 36.5361 99.9705Q36.457 99.9792 36.4219 99.9792L34.9365 99.9792Q34.6816 99.9792 34.4004 100.023Q34.1279 100.058 33.873 100.102L33.8203 100.102Q33.7618 100.102 33.7105 100.083Q33.6231 100.05 33.5566 99.9617Q33.4894 99.8577 33.4689 99.7452Q33.46 99.696 33.46 99.6453L33.46 99.6101Q33.46 99.5837 33.4688 99.5662Q33.4688 99.5398 33.4775 99.5134Q33.4775 99.4871 33.5039 99.4519Q33.5303 99.408 33.5303 99.3904Q33.5303 99.3728 33.5039 99.3025Q33.4775 99.2234 33.4775 99.2058L33.4775 99.0828Q33.4775 99.0652 33.4863 98.9861Q33.4951 98.907 33.5039 98.8103Q33.5127 98.7136 33.5215 98.6257Q33.5303 98.5378 33.5303 98.5115L33.5303 96.6658Q33.5303 96.6394 33.5391 96.5427Q33.5566 96.446 33.5654 96.3406Q33.583 96.2263 33.5918 96.1384Q33.6094 96.0417 33.6094 96.033L33.6094 94.908Q33.6094 94.5037 33.627 94.1169Q33.6533 93.7302 33.7324 93.3347Q33.75 93.2644 33.7939 93.2205Q33.8267 93.1877 33.8662 93.1719Q33.8903 93.1623 33.917 93.1589Q33.9434 93.1589 34.0576 93.1501Q34.1719 93.1326 34.3037 93.1238Q34.4355 93.1062 34.5498 93.0974Q34.6729 93.0798 34.708 93.0798Q34.8047 93.0623 34.9541 92.9832Q35.1035 92.8953 35.1738 92.8513Q35.1738 92.8337 35.1914 92.7898Q35.209 92.7371 35.209 92.7107Q35.209 92.5891 35.1489 92.519Q35.1482 92.5182 35.1475 92.5173Q35.1269 92.4899 35.1009 92.4691Q35.0604 92.4367 35.0068 92.4207Q34.9189 92.3855 34.8135 92.3767Q34.708 92.3679 34.6025 92.3679Q34.585 92.3679 34.5674 92.3767L34.5059 92.3767Q34.4971 92.3767 34.4443 92.3855Q34.4004 92.3943 34.3389 92.4031L34.2334 92.4207Q34.1807 92.4294 34.1719 92.4294L33.7324 92.4294Q33.7236 92.4294 33.6621 92.4382Q33.6094 92.447 33.5391 92.4558Q33.4775 92.4646 33.416 92.4822Q33.3545 92.491 33.3369 92.4998L33.1523 92.4998Q33.1084 92.491 32.9502 92.4822Q32.792 92.4646 32.6074 92.4558Q32.4316 92.447 32.2734 92.4382Q32.1152 92.4294 32.0713 92.4294Q32.0449 92.4294 31.957 92.4382Q31.8779 92.447 31.7812 92.4558Q31.6934 92.4646 31.6143 92.4734Q31.5352 92.4822 31.5088 92.4822Q31.4121 92.4998 31.2363 92.4646Q31.0605 92.4294 30.9375 92.4294Q30.876 92.4294 30.7881 92.4646Q30.709 92.491 30.6387 92.5437Q30.6035 92.5701 30.5728 92.6008Q30.542 92.6316 30.5156 92.6667Q30.4866 92.7006 30.4736 92.7397Q30.4629 92.7718 30.4629 92.8074Q30.4629 92.9047 30.5092 92.9683Q30.5298 92.9966 30.5596 93.0183Q30.665 93.0798 30.8232 93.1062Q30.9814 93.1326 31.166 93.1414Q31.3594 93.1414 31.5264 93.1677Q31.7021 93.1941 31.8252 93.2556Q31.8951 93.2836 31.9403 93.3338Q31.9803 93.3783 32.001 93.4402Q32.001 93.4578 32.0098 93.5193Q32.0273 93.572 32.0361 93.6511L32.0537 93.7917Q32.0713 93.8621 32.0713 93.8972L32.0713 95.1189Q32.0713 95.2771 32.0537 95.5232Q32.0449 95.7693 32.0273 96.0066Q32.0186 96.2439 32.0098 96.4197Q32.001 96.5867 32.001 96.5955L31.957 96.7097L31.957 96.8855Q31.9658 96.9998 31.9658 97.1404Q31.9658 97.281 31.957 97.4041L31.957 97.5623Q31.957 97.6677 31.9482 97.9138Q31.9395 98.1599 31.9307 98.4236Q31.9219 98.6873 31.9131 98.9158Q31.9043 99.1355 31.9043 99.2058Q31.9043 99.2322 31.8955 99.3025Q31.8867 99.3728 31.8691 99.4607Q31.8604 99.5398 31.8428 99.6189Q31.834 99.6892 31.834 99.7244Q31.834 99.7419 31.8252 99.7683Q31.8164 99.7947 31.8076 99.8298Q31.7988 99.865 31.79 99.9089Q31.7461 99.9617 31.5176 99.9792Q31.2891 99.988 31.0342 100.006Q30.7793 100.014 30.5684 100.058Q30.381 100.091 30.3597 100.169Q30.3581 100.175 30.3574 100.181L30.3574 100.313Q30.3574 100.436 30.4102 100.507Q30.4397 100.546 30.4775 100.574Q30.5072 100.597 30.542 100.612Q30.6299 100.647 30.7354 100.656Q30.8496 100.665 30.9639 100.665L30.999 100.665Q31.0078 100.665 31.0869 100.638ZM22.2012 100.577L22.2891 100.577Q22.3154 100.577 22.4297 100.594Q22.5439 100.603 22.6846 100.621Q22.8252 100.63 22.9395 100.638Q23.0537 100.647 23.0801 100.647L23.9502 100.647Q23.9854 100.656 24.0732 100.665Q24.1611 100.674 24.2578 100.682Q24.3545 100.691 24.4424 100.7Q24.5391 100.709 24.5742 100.709Q24.705 100.675 24.773 100.591Q24.8467 100.499 24.8467 100.348Q24.8467 100.224 24.7862 100.149Q24.7738 100.133 24.7588 100.12Q24.6709 100.041 24.5391 100.006Q24.4072 99.9617 24.2578 99.9441Q24.1084 99.9177 23.9766 99.8826Q23.8447 99.8474 23.7568 99.7859Q23.7375 99.7705 23.7225 99.7516Q23.6689 99.6847 23.6689 99.575Q23.6689 99.3289 23.6865 99.1003Q23.6923 99.0228 23.7074 98.9471Q23.7386 98.7912 23.8096 98.6433Q23.8359 98.6257 23.8887 98.5378Q23.9502 98.45 23.9502 98.4324Q23.9502 98.4236 23.9678 98.3708Q23.9941 98.3093 24.0117 98.2478Q24.0381 98.1775 24.0557 98.1248Q24.082 98.0632 24.0996 98.0544Q24.0996 98.0193 24.1611 97.9578Q24.2227 97.9578 24.2842 97.9666Q24.3457 97.9753 24.4072 97.9753Q24.7148 97.9753 24.9873 97.9314Q25.2686 97.8875 25.585 97.8875L25.7607 97.8875Q25.9277 97.8875 26.0947 97.9226Q26.1823 97.9357 26.2502 97.9794Q26.3187 98.0234 26.3672 98.0984Q26.3936 98.1423 26.4287 98.2302Q26.4727 98.3093 26.5078 98.3972L26.5869 98.5554Q26.6221 98.6257 26.6396 98.6433Q26.6484 98.6609 26.6748 98.7751Q26.7012 98.8806 26.7275 99.0212Q26.7627 99.1619 26.7891 99.3025Q26.8242 99.4431 26.833 99.5222L26.8506 99.5837L26.833 99.6453Q26.7524 99.7771 26.6353 99.8357Q26.6118 99.8474 26.5869 99.8562Q26.4375 99.9001 26.2793 99.9353Q26.2046 99.9529 26.1321 99.9771Q26.0596 100.001 25.9893 100.032Q25.9673 100.04 25.9469 100.051Q25.8363 100.111 25.7695 100.252Q25.7607 100.269 25.7607 100.287L25.7607 100.348Q25.7607 100.445 25.7783 100.498Q25.7959 100.542 25.8926 100.577Q26.0332 100.577 26.3848 100.594Q26.7451 100.603 27.1406 100.621Q27.5449 100.63 27.8965 100.638Q28.248 100.647 28.3887 100.647L28.749 100.647Q28.8721 100.647 29.0127 100.638Q29.1533 100.63 29.2676 100.586Q29.3818 100.542 29.4521 100.463Q29.4588 100.455 29.465 100.447Q29.5312 100.362 29.5312 100.225Q29.5312 100.184 29.5182 100.147Q29.4871 100.059 29.3818 99.9968Q29.2324 99.9089 29.0303 99.8386L28.6436 99.698Q28.459 99.6277 28.3887 99.5222Q28.2393 99.3201 28.1689 99.0564Q28.0986 98.7927 28.0547 98.5642Q28.0459 98.5642 28.0195 98.5203Q28.002 98.4675 27.9756 98.4148Q27.9492 98.3533 27.9316 98.3093Q27.9141 98.2566 27.9141 98.2478Q27.9053 98.2302 27.8965 98.1863Q27.8877 98.1335 27.8701 98.0808Q27.8613 98.0193 27.8525 97.9753Q27.8438 97.9314 27.8438 97.9138Q27.835 97.8875 27.8086 97.8259Q27.7822 97.7644 27.7471 97.7029Q27.7119 97.6326 27.6768 97.5798Q27.6504 97.5183 27.6416 97.5007Q27.5713 97.3337 27.5537 97.2195Q27.5449 97.0964 27.501 96.8943Q27.4482 96.657 27.3428 96.4285Q27.2373 96.1912 27.167 95.9539Q27.1318 95.8484 27.0791 95.6726L26.9736 95.3035Q26.9209 95.1189 26.877 94.9783Q26.8418 94.8376 26.833 94.8113Q26.833 94.7937 26.8154 94.7058Q26.7979 94.6091 26.7715 94.4949Q26.7539 94.3806 26.7363 94.2839Q26.7188 94.1873 26.71 94.1609Q26.71 94.1521 26.6924 94.0906Q26.6748 94.0291 26.6484 93.95Q26.6309 93.8708 26.6045 93.7917Q26.5869 93.7126 26.5781 93.6687Q26.5518 93.616 26.5166 93.4753Q26.4814 93.3259 26.4287 93.1765Q26.3848 93.0183 26.3145 92.8865Q26.2529 92.7546 26.165 92.7283Q26.1479 92.7254 26.1318 92.7281Q26.0981 92.7337 26.0684 92.7634Q26.0244 92.7986 25.9893 92.8513Q25.9541 92.8953 25.9277 92.948Q25.9014 92.9919 25.8926 93.0007Q25.8662 93.0271 25.8047 93.0974Q25.752 93.1589 25.6816 93.2292L25.4971 93.4138Q25.4883 93.4226 25.4268 93.449L25.3037 93.5105Q25.2334 93.5457 25.1631 93.572Q25.1016 93.5984 25.084 93.6072Q25.0488 93.6335 24.9785 93.7302Q24.9082 93.8269 24.9082 93.8884Q24.9082 93.8972 24.9258 93.9851Q24.9521 94.0642 24.9521 94.0994L24.9521 94.2224Q24.9521 94.3103 24.9082 94.407Q24.873 94.5037 24.8203 94.6091Q24.7676 94.7058 24.7061 94.7937Q24.6533 94.8816 24.6182 94.9519Q24.5566 95.1277 24.4863 95.2595Q24.4248 95.3826 24.3545 95.5408Q24.3369 95.5671 24.2842 95.6726Q24.2402 95.7781 24.1787 95.8923Q24.126 96.0066 24.0732 96.1033Q24.0293 96.2 24.0205 96.2263Q24.0205 96.2439 23.9854 96.3318Q23.959 96.4197 23.9238 96.5251L23.8535 96.7185Q23.8184 96.8064 23.8096 96.824Q23.792 96.8767 23.7393 97.0085Q23.6953 97.1316 23.6689 97.158Q23.458 97.6501 23.2207 98.1423Q22.9834 98.6257 22.7461 99.1003Q22.7285 99.1179 22.7021 99.2058Q22.6846 99.2937 22.6846 99.3113Q22.6846 99.3376 22.6494 99.3904Q22.6318 99.4167 22.623 99.4343L22.5352 99.5222Q22.4912 99.575 22.4385 99.6277L22.3418 99.7244Q22.2979 99.7595 22.2891 99.7683Q22.2715 99.7859 22.2012 99.821Q22.1309 99.8474 22.043 99.8826Q21.9639 99.9177 21.8936 99.9529Q21.8232 99.9792 21.8057 99.9792Q21.7002 100.023 21.5859 100.076Q21.5596 100.089 21.5398 100.109Q21.4805 100.168 21.4805 100.287L21.4805 100.313Q21.4805 100.331 21.4893 100.392Q21.4893 100.445 21.5068 100.507Q21.5139 100.528 21.5237 100.547Q21.5385 100.577 21.5596 100.603Q21.5802 100.629 21.6068 100.64Q21.6256 100.647 21.6475 100.647L21.7002 100.647Q21.7178 100.647 21.7881 100.638Q21.8672 100.63 21.9551 100.621Q22.043 100.603 22.1133 100.594Q22.1836 100.577 22.2012 100.577ZM24.3194 97.2424Q24.293 97.1995 24.293 97.1404L24.293 97.0349Q24.3193 96.9558 24.3809 96.7537Q24.4512 96.5515 24.5215 96.3318Q24.5918 96.1033 24.6533 95.9011Q24.7236 95.699 24.75 95.6199Q24.7852 95.5408 24.8115 95.4089Q24.8379 95.2683 24.873 95.1365Q24.917 95.0046 24.9785 94.908Q25.0175 94.8543 25.0701 94.8304Q25.1122 94.8113 25.1631 94.8113Q25.1796 94.8113 25.1956 94.8145Q25.2388 94.8231 25.2773 94.8552Q25.3301 94.8992 25.374 94.9695Q25.418 95.031 25.4443 95.1101Q25.4795 95.1804 25.4971 95.2419Q25.6377 95.6199 25.7959 96.0242Q25.9541 96.4197 26.0332 96.824L26.0332 96.9734Q26.0332 97.1805 25.9302 97.2737Q25.902 97.2992 25.8662 97.3162Q25.6992 97.3865 25.4707 97.3865Q25.374 97.3865 25.2773 97.3777Q25.1807 97.3689 25.084 97.3689L24.6182 97.3689Q24.5215 97.3689 24.4072 97.3162Q24.3479 97.2888 24.3194 97.2424Z" fill="#151618" fill-opacity="1.000000" fill-rule="evenodd"/>
</svg>
